<svg width="27" height="9" viewBox="0 0 27 9" fill="none" xmlns="http://www.w3.org/2000/svg">
<path d="M10.2517 0.158269L6.71741 8.8623H4.4106L2.67258 1.9167C2.56558 1.48832 2.47414 1.3325 2.1533 1.15061C1.62775 0.857363 0.763277 0.582242 0 0.410966L0.0534199 0.158323H3.76481C4.23816 0.158323 4.66372 0.484168 4.77072 1.04589L5.68972 6.08361L7.95962 0.158323H10.2517V0.158269ZM19.2875 6.01923C19.2978 3.72324 16.2093 3.59828 16.2315 2.57111C16.2375 2.25756 16.5254 1.92579 17.156 1.84203C17.4692 1.79903 18.3309 1.76752 19.3076 2.2303L19.6904 0.385386C19.1649 0.188529 18.4894 0 17.6499 0C15.4936 0 13.9757 1.1837 13.9628 2.87736C13.9487 4.12985 15.0459 4.82873 15.8734 5.24584C16.7232 5.67265 17.0073 5.94516 17.0043 6.32793C16.9987 6.91213 16.3263 7.16744 15.6991 7.17893C14.6019 7.19656 13.9656 6.87295 13.4574 6.62869L13.0624 8.537C13.5714 8.77822 14.5139 8.98765 15.4893 9C17.7811 8.99989 19.2803 7.82882 19.2875 6.01923ZM24.9818 8.86236H27L25.2389 0.158323H23.3758C22.9571 0.158323 22.6042 0.410313 22.447 0.796352L19.1752 8.86236H21.4652L21.9198 7.56246H24.719L24.9818 8.86236ZM22.5473 5.77845L23.6961 2.51026L24.3571 5.77845H22.5473ZM13.3695 0.158269L11.5644 8.8623H9.38229L11.1878 0.158269H13.3695Z" fill="white"/>
</svg>
